<svg width="441" height="321" viewBox="0 0 441 321" fill="none" xmlns="http://www.w3.org/2000/svg">
<path d="M59.9835 308.029C49.0109 308.029 39.6233 305.835 31.8205 301.446C24.1397 297.056 18.2267 291.387 14.0815 284.438C10.0582 277.367 8.04657 269.869 8.04657 261.944H43.1589C43.1589 268.284 44.9877 272.917 48.6452 275.843C52.4246 278.647 56.6918 280.049 61.4466 280.049C66.2014 280.049 70.1637 279.013 73.3335 276.94C76.5034 274.746 78.0883 271.088 78.0883 265.967C78.0883 261.335 76.0767 257.494 72.0534 254.446C68.152 251.398 61.3246 249.874 51.5712 249.874V227.929C58.3986 227.929 63.8849 226.405 68.0301 223.357C72.2972 220.309 74.4308 216.713 74.4308 212.567C74.4308 209.398 73.3335 206.837 71.139 204.887C69.0664 202.936 65.8356 201.961 61.4466 201.961C57.0575 201.961 53.4 203.302 50.474 205.984C47.5479 208.544 46.0849 211.836 46.0849 215.859H13.5329C13.5329 207.935 15.4836 200.863 19.3849 194.646C23.2863 188.306 28.8336 183.307 36.0267 179.65C43.2199 175.992 51.6931 174.163 61.4466 174.163C71.8096 174.163 80.5267 175.748 87.5979 178.918C94.7911 182.088 100.216 186.355 103.874 191.72C107.653 197.084 109.543 203.18 109.543 210.007C109.543 216.713 107.592 222.321 103.691 226.832C99.7897 231.343 94.5472 234.878 87.9637 237.439C95.8883 240.243 102.045 244.266 106.434 249.509C110.945 254.751 113.201 261.396 113.201 269.442C113.201 276.879 111.128 283.524 106.983 289.376C102.838 295.228 96.8027 299.8 88.8781 303.091C80.9534 306.383 71.3219 308.029 59.9835 308.029Z" fill="white"/>
<path d="M35.0083 122.233L46.6502 93.3185H63.9989L35.0083 150.158L5.94165 93.3185H23.3664L35.0083 122.233ZM65.0784 119.95C65.0784 115.74 65.814 111.935 67.285 108.537C68.8069 105.087 70.8867 102.145 73.5245 99.7101C76.1623 97.2245 79.2567 95.3222 82.8076 94.0033C86.3585 92.6337 90.1884 91.9489 94.2973 91.9489C98.5076 91.9489 102.363 92.6337 105.863 94.0033C109.414 95.3222 112.508 97.2245 115.146 99.7101C117.784 102.145 119.813 105.087 121.233 108.537C122.704 111.935 123.44 115.74 123.44 119.95C123.44 124.11 122.73 127.94 121.309 131.44C119.889 134.94 117.86 137.984 115.222 140.571C112.635 143.107 109.566 145.086 106.015 146.506C102.464 147.876 98.5583 148.56 94.2973 148.56C90.0362 148.56 86.1302 147.876 82.5793 146.506C79.0284 145.086 75.934 143.107 73.2962 140.571C70.7091 137.984 68.68 134.94 67.209 131.44C65.7886 127.94 65.0784 124.11 65.0784 119.95ZM80.7531 119.95C80.7531 124.262 81.9706 127.788 84.4055 130.527C86.8911 133.215 90.1884 134.56 94.2973 134.56C98.4062 134.56 101.653 133.215 104.037 130.527C106.472 127.788 107.689 124.262 107.689 119.95C107.689 115.588 106.522 112.062 104.189 109.374C101.856 106.685 98.5583 105.341 94.2973 105.341C90.1884 105.341 86.8911 106.685 84.4055 109.374C81.9706 112.062 80.7531 115.588 80.7531 119.95ZM130.903 93.3185H145.741V127.864C145.741 130.299 146.349 132.277 147.567 133.799C148.835 135.27 150.763 136.005 153.35 136.005C155.937 136.005 157.839 135.27 159.056 133.799C160.325 132.277 160.959 130.299 160.959 127.864V93.3185H175.72V129.081C175.72 133.85 174.706 137.705 172.677 140.647C170.648 143.589 167.934 145.745 164.535 147.115C161.187 148.484 157.459 149.169 153.35 149.169C149.241 149.169 145.487 148.484 142.088 147.115C138.689 145.745 135.976 143.589 133.946 140.647C131.917 137.705 130.903 133.85 130.903 129.081V93.3185ZM199.511 119.95C199.511 122.943 200.17 125.48 201.489 127.559C202.859 129.639 204.659 131.237 206.891 132.353C209.123 133.418 211.584 133.951 214.272 133.951C218.026 133.951 221.12 133.241 223.555 131.82C225.99 130.4 228.07 128.828 229.795 127.103V142.777C227.664 144.299 225.331 145.542 222.794 146.506C220.309 147.47 217.113 147.952 213.207 147.952C207.272 147.952 202.047 146.785 197.532 144.451C193.068 142.118 189.568 138.872 187.032 134.712C184.495 130.502 183.227 125.581 183.227 119.95C183.227 114.32 184.495 109.424 187.032 105.265C189.568 101.054 193.068 97.7825 197.532 95.4491C202.047 93.1156 207.272 91.9489 213.207 91.9489C217.113 91.9489 220.309 92.4308 222.794 93.3946C225.331 94.3584 227.664 95.6012 229.795 97.1231V112.798C228.07 111.022 225.99 109.45 223.555 108.08C221.12 106.66 218.026 105.95 214.272 105.95C211.584 105.95 209.123 106.508 206.891 107.624C204.659 108.689 202.859 110.261 201.489 112.341C200.17 114.421 199.511 116.957 199.511 119.95ZM239.921 93.3185H254.682V112.189H275.683V93.3185H290.445V146.582H275.683V125.353H254.682V146.582H239.921V93.3185ZM301.373 93.3185H338.277V105.265H315.526V113.102H336.755V124.744H315.526V134.636H338.277V146.582H301.373V93.3185ZM348.484 93.3185H369.409C374.278 93.3185 378.311 94.0794 381.507 95.6012C384.703 97.1231 387.062 99.2282 388.584 101.917C390.156 104.555 390.942 107.624 390.942 111.124C390.942 114.725 390.105 117.921 388.431 120.711C386.757 123.45 384.196 125.556 380.746 127.027L394.138 146.582H376.866L366.441 129.005H363.245V146.582H348.484V93.3185ZM368.191 105.797H363.245V117.668H368.191C370.575 117.668 372.376 117.16 373.594 116.146C374.862 115.08 375.496 113.609 375.496 111.732C375.496 109.805 374.862 108.334 373.594 107.319C372.376 106.305 370.575 105.797 368.191 105.797Z" fill="white"/>
<path d="M10.2442 21.7247H25.8058C29.4274 21.7247 32.4265 22.2906 34.8032 23.4223C37.1799 24.5541 38.9341 26.1197 40.0658 28.1191C41.2353 30.0808 41.82 32.3631 41.82 34.9662C41.82 37.6446 41.1976 40.0213 39.9526 42.0962C38.7077 44.1333 36.8026 45.6989 34.2373 46.793L44.1967 61.3359H31.3513L23.5989 48.2642H21.2222V61.3359H10.2442V21.7247ZM24.9004 31.0051H21.2222V39.8327H24.9004C26.6735 39.8327 28.0127 39.4554 28.9181 38.7009C29.8612 37.9087 30.3328 36.8147 30.3328 35.4189C30.3328 33.9853 29.8612 32.8913 28.9181 32.1368C28.0127 31.3823 26.6735 31.0051 24.9004 31.0051ZM48.3192 21.7247H75.7641V30.6089H58.8445V36.4374H74.6324V45.0953H58.8445V52.4517H75.7641V61.3359H48.3192V21.7247ZM88.5608 46.8495C89.768 48.9244 91.1827 50.5655 92.8049 51.7727C94.4271 52.9421 96.1813 53.5269 98.0675 53.5269C99.2747 53.5269 100.274 53.2628 101.067 52.7346C101.859 52.2065 102.255 51.4143 102.255 50.358C102.255 49.6035 102.029 48.9621 101.576 48.434C101.161 47.9058 100.388 47.3777 99.2559 46.8495C98.1619 46.3214 96.5963 45.6801 94.5591 44.9256C93.616 44.5483 92.522 44.0579 91.277 43.4543C90.0698 42.813 88.9004 42.0019 87.7686 41.021C86.6746 40.0402 85.7503 38.8518 84.9958 37.456C84.2791 36.0225 83.9207 34.3248 83.9207 32.3631C83.9207 29.8733 84.5809 27.7607 85.9012 26.0254C87.2216 24.29 88.9758 22.9696 91.1639 22.0642C93.3896 21.1588 95.8229 20.7061 98.4637 20.7061C101.293 20.7061 103.707 21.1588 105.707 22.0642C107.744 22.9319 109.423 24.0448 110.743 25.4029C112.064 26.7233 113.082 28.0625 113.799 29.4206L105.537 34.0042C103.726 31.1748 101.463 29.7601 98.7466 29.7601C96.3699 29.7601 95.1816 30.5712 95.1816 32.1934C95.1816 33.476 95.9738 34.4946 97.5583 35.2491C99.1804 35.9659 101.255 36.777 103.783 37.6824C106.763 38.7009 109.196 40.2099 111.083 42.2094C112.969 44.1711 113.912 46.7364 113.912 49.9053C113.912 52.0179 113.478 53.8853 112.611 55.5074C111.743 57.1296 110.573 58.4877 109.102 59.5817C107.669 60.638 106.028 61.4302 104.179 61.9584C102.368 62.5243 100.482 62.8072 98.5202 62.8072C95.804 62.8072 93.2765 62.3356 90.9375 61.3925C88.6363 60.4494 86.6369 59.1856 84.9392 57.6012C83.2416 56.0167 81.959 54.2436 81.0913 52.2819L88.5608 46.8495ZM140.08 47.4154V39.1536H160.565C160.791 42.398 160.489 45.4537 159.659 48.3208C158.867 51.1879 157.585 53.7155 155.812 55.9035C154.038 58.0539 151.813 59.7515 149.134 60.9964C146.493 62.2036 143.438 62.8072 139.967 62.8072C135.666 62.8072 131.837 61.9207 128.48 60.1476C125.16 58.3745 122.538 55.9035 120.614 52.7346C118.728 49.528 117.785 45.7932 117.785 41.5303C117.785 38.3237 118.351 35.4377 119.482 32.8724C120.614 30.3071 122.199 28.1191 124.236 26.3083C126.311 24.4975 128.725 23.1205 131.479 22.1774C134.233 21.1966 137.213 20.7061 140.42 20.7061C143.325 20.7061 145.909 21.14 148.172 22.0076C150.436 22.8376 152.435 23.9882 154.17 25.4595C155.906 26.893 157.415 28.5341 158.697 30.3826L148.625 35.1925C147.833 33.759 146.795 32.5518 145.513 31.5709C144.23 30.5901 142.532 30.0996 140.42 30.0996C138.383 30.0996 136.515 30.5523 134.818 31.4578C133.158 32.3254 131.818 33.6081 130.8 35.3057C129.819 37.0033 129.329 39.0782 129.329 41.5303C129.329 45.1896 130.347 48.0945 132.384 50.2448C134.459 52.3574 137.138 53.4137 140.42 53.4137C143.023 53.4137 145.06 52.8478 146.531 51.7161C148.04 50.5843 149.115 49.1508 149.757 47.4154H140.08ZM191.569 61.3359L188.23 54.9981H176.573L173.348 61.3359H160.842L182.458 19.0651L204.018 61.3359H191.569ZM182.458 38.0219L178.554 46.8495H186.306L182.458 38.0219ZM199.974 31.5709V21.7247H233.19V31.5709H222.099V61.3359H211.065V31.5709H199.974ZM237.313 21.7247H264.757V30.6089H247.838V36.4374H263.626V45.0953H247.838V52.4517H264.757V61.3359H237.313V21.7247ZM294.519 46.8495C295.727 48.9244 297.141 50.5655 298.763 51.7727C300.386 52.9421 302.14 53.5269 304.026 53.5269C305.233 53.5269 306.233 53.2628 307.025 52.7346C307.817 52.2065 308.214 51.4143 308.214 50.358C308.214 49.6035 307.987 48.9621 307.534 48.434C307.12 47.9058 306.346 47.3777 305.214 46.8495C304.12 46.3214 302.555 45.6801 300.518 44.9256C299.575 44.5483 298.48 44.0579 297.236 43.4543C296.028 42.813 294.859 42.0019 293.727 41.021C292.633 40.0402 291.709 38.8518 290.954 37.456C290.238 36.0225 289.879 34.3248 289.879 32.3631C289.879 29.8733 290.539 27.7607 291.86 26.0254C293.18 24.29 294.934 22.9696 297.122 22.0642C299.348 21.1588 301.781 20.7061 304.422 20.7061C307.252 20.7061 309.666 21.1588 311.665 22.0642C313.703 22.9319 315.381 24.0448 316.702 25.4029C318.022 26.7233 319.041 28.0625 319.757 29.4206L311.496 34.0042C309.685 31.1748 307.421 29.7601 304.705 29.7601C302.328 29.7601 301.14 30.5712 301.14 32.1934C301.14 33.476 301.932 34.4946 303.517 35.2491C305.139 35.9659 307.214 36.777 309.741 37.6824C312.722 38.7009 315.155 40.2099 317.041 42.2094C318.927 44.1711 319.871 46.7364 319.871 49.9053C319.871 52.0179 319.437 53.8853 318.569 55.5074C317.701 57.1296 316.532 58.4877 315.061 59.5817C313.627 60.638 311.986 61.4302 310.138 61.9584C308.327 62.5243 306.44 62.8072 304.479 62.8072C301.763 62.8072 299.235 62.3356 296.896 61.3925C294.595 60.4494 292.595 59.1856 290.898 57.6012C289.2 56.0167 287.917 54.2436 287.05 52.2819L294.519 46.8495ZM326.007 21.7247H353.452V30.6089H336.532V36.4374H352.32V45.0953H336.532V52.4517H353.452V61.3359H326.007V21.7247ZM360.759 21.7247H371.794V47.4154C371.794 49.2262 372.247 50.6975 373.152 51.8292C374.095 52.9233 375.529 53.4703 377.453 53.4703C379.377 53.4703 380.791 52.9233 381.697 51.8292C382.64 50.6975 383.111 49.2262 383.111 47.4154V21.7247H394.089V48.3208C394.089 51.867 393.335 54.7341 391.826 56.9221C390.317 59.1102 388.299 60.7135 385.771 61.732C383.281 62.7506 380.508 63.2599 377.453 63.2599C374.397 63.2599 371.605 62.7506 369.078 61.732C366.55 60.7135 364.532 59.1102 363.023 56.9221C361.514 54.7341 360.759 51.867 360.759 48.3208V21.7247Z" fill="white"/>
<path d="M157.211 285.6V275.442H182.397C182.675 279.431 182.304 283.188 181.284 286.713C180.31 290.238 178.733 293.345 176.553 296.036C174.373 298.68 171.636 300.767 168.343 302.297C165.096 303.782 161.339 304.524 157.072 304.524C151.784 304.524 147.076 303.434 142.948 301.254C138.867 299.074 135.643 296.036 133.277 292.14C130.958 288.197 129.799 283.605 129.799 278.364C129.799 274.421 130.494 270.873 131.886 267.719C133.277 264.565 135.225 261.875 137.73 259.648C140.281 257.422 143.25 255.729 146.636 254.569C150.022 253.363 153.686 252.76 157.628 252.76C161.2 252.76 164.377 253.294 167.16 254.361C169.943 255.381 172.401 256.796 174.535 258.605C176.669 260.367 178.524 262.385 180.101 264.658L167.717 270.571C166.743 268.809 165.467 267.325 163.89 266.119C162.313 264.913 160.226 264.31 157.628 264.31C155.124 264.31 152.828 264.866 150.741 265.98C148.7 267.046 147.053 268.623 145.801 270.711C144.595 272.798 143.992 275.349 143.992 278.364C143.992 282.863 145.244 286.434 147.749 289.078C150.3 291.676 153.593 292.974 157.628 292.974C160.829 292.974 163.333 292.279 165.142 290.887C166.998 289.496 168.32 287.733 169.108 285.6H157.211ZM190.062 254.013H209.195C213.648 254.013 217.335 254.709 220.257 256.1C223.179 257.492 225.336 259.416 226.728 261.875C228.166 264.287 228.884 267.093 228.884 270.293C228.884 273.586 228.119 276.509 226.589 279.06C225.058 281.564 222.716 283.489 219.562 284.834L231.807 302.715H216.013L206.482 286.643H203.559V302.715H190.062V254.013ZM208.082 265.423H203.559V276.277H208.082C210.262 276.277 211.908 275.813 213.022 274.885C214.181 273.911 214.761 272.566 214.761 270.85C214.761 269.087 214.181 267.742 213.022 266.814C211.908 265.887 210.262 265.423 208.082 265.423ZM269.853 236.132L257.33 246.568L250.512 243.298L260.948 232.166L269.853 236.132ZM269.436 302.715L265.331 294.923H250.999L247.033 302.715H231.657L258.235 250.743L284.742 302.715H269.436ZM258.235 274.05L253.434 284.904H262.966L258.235 274.05ZM279.769 266.119V254.013H320.61V266.119H306.973V302.715H293.406V266.119H279.769ZM325.678 254.013H339.453V302.715H325.678V254.013ZM355.859 284.904C357.343 287.455 359.082 289.473 361.077 290.957C363.071 292.395 365.228 293.114 367.547 293.114C369.031 293.114 370.261 292.789 371.235 292.14C372.209 291.49 372.696 290.516 372.696 289.217C372.696 288.29 372.417 287.501 371.861 286.852C371.351 286.203 370.4 285.553 369.008 284.904C367.663 284.254 365.738 283.466 363.234 282.538C362.074 282.074 360.729 281.471 359.198 280.729C357.714 279.941 356.276 278.944 354.885 277.738C353.54 276.532 352.403 275.071 351.476 273.354C350.594 271.592 350.154 269.505 350.154 267.093C350.154 264.032 350.965 261.434 352.589 259.3C354.212 257.167 356.369 255.543 359.059 254.43C361.796 253.317 364.787 252.76 368.034 252.76C371.513 252.76 374.481 253.317 376.94 254.43C379.444 255.497 381.508 256.865 383.132 258.535C384.755 260.159 386.008 261.805 386.889 263.475L376.731 269.11C374.505 265.632 371.722 263.892 368.382 263.892C365.46 263.892 363.999 264.89 363.999 266.884C363.999 268.461 364.973 269.713 366.921 270.641C368.916 271.522 371.467 272.52 374.574 273.633C378.238 274.885 381.23 276.74 383.549 279.199C385.868 281.611 387.028 284.765 387.028 288.661C387.028 291.258 386.495 293.554 385.428 295.549C384.361 297.543 382.923 299.213 381.114 300.558C379.352 301.857 377.334 302.831 375.061 303.48C372.835 304.176 370.516 304.524 368.104 304.524C364.764 304.524 361.657 303.944 358.781 302.784C355.952 301.625 353.493 300.071 351.406 298.123C349.319 296.175 347.742 293.995 346.675 291.583L355.859 284.904Z" fill="white"/>
<path d="M137.272 201.767C138.505 203.887 139.95 205.563 141.607 206.796C143.264 207.991 145.056 208.588 146.983 208.588C148.217 208.588 149.238 208.319 150.047 207.779C150.856 207.24 151.261 206.43 151.261 205.351C151.261 204.58 151.03 203.925 150.567 203.386C150.143 202.846 149.353 202.307 148.197 201.767C147.08 201.228 145.48 200.572 143.399 199.802C142.436 199.416 141.318 198.915 140.046 198.299C138.813 197.643 137.618 196.815 136.462 195.813C135.345 194.811 134.4 193.597 133.63 192.171C132.897 190.706 132.531 188.972 132.531 186.968C132.531 184.425 133.206 182.266 134.555 180.494C135.903 178.721 137.695 177.372 139.931 176.447C142.205 175.522 144.69 175.06 147.388 175.06C150.278 175.06 152.745 175.522 154.787 176.447C156.868 177.333 158.583 178.47 159.932 179.858C161.281 181.207 162.322 182.575 163.054 183.962L154.614 188.645C152.764 185.754 150.452 184.309 147.677 184.309C145.249 184.309 144.035 185.138 144.035 186.795C144.035 188.105 144.844 189.146 146.463 189.916C148.12 190.649 150.24 191.477 152.822 192.402C155.866 193.443 158.352 194.984 160.279 197.027C162.206 199.031 163.17 201.651 163.17 204.889C163.17 207.047 162.726 208.955 161.84 210.612C160.954 212.269 159.759 213.656 158.256 214.774C156.791 215.853 155.115 216.662 153.227 217.202C151.377 217.78 149.45 218.069 147.446 218.069C144.671 218.069 142.089 217.587 139.699 216.624C137.349 215.66 135.306 214.369 133.572 212.751C131.838 211.132 130.527 209.321 129.641 207.317L137.272 201.767ZM169.438 176.1H197.475V185.176H180.19V191.13H196.319V199.975H180.19V207.49H197.475V216.566H169.438V176.1ZM210.548 201.767C211.781 203.887 213.226 205.563 214.883 206.796C216.541 207.991 218.333 208.588 220.26 208.588C221.493 208.588 222.514 208.319 223.323 207.779C224.133 207.24 224.537 206.43 224.537 205.351C224.537 204.58 224.306 203.925 223.844 203.386C223.42 202.846 222.63 202.307 221.474 201.767C220.356 201.228 218.757 200.572 216.675 199.802C215.712 199.416 214.594 198.915 213.323 198.299C212.089 197.643 210.895 196.815 209.739 195.813C208.621 194.811 207.677 193.597 206.906 192.171C206.174 190.706 205.808 188.972 205.808 186.968C205.808 184.425 206.482 182.266 207.831 180.494C209.18 178.721 210.972 177.372 213.207 176.447C215.481 175.522 217.967 175.06 220.664 175.06C223.555 175.06 226.021 175.522 228.064 176.447C230.145 177.333 231.86 178.47 233.209 179.858C234.557 181.207 235.598 182.575 236.33 183.962L227.89 188.645C226.04 185.754 223.728 184.309 220.953 184.309C218.525 184.309 217.311 185.138 217.311 186.795C217.311 188.105 218.121 189.146 219.739 189.916C221.396 190.649 223.516 191.477 226.098 192.402C229.143 193.443 231.629 194.984 233.555 197.027C235.482 199.031 236.446 201.651 236.446 204.889C236.446 207.047 236.003 208.955 235.116 210.612C234.23 212.269 233.035 213.656 231.532 214.774C230.068 215.853 228.391 216.662 226.503 217.202C224.653 217.78 222.726 218.069 220.722 218.069C217.947 218.069 215.365 217.587 212.976 216.624C210.625 215.66 208.582 214.369 206.848 212.751C205.114 211.132 203.804 209.321 202.917 207.317L210.548 201.767ZM248.033 201.767C249.266 203.887 250.711 205.563 252.368 206.796C254.026 207.991 255.818 208.588 257.745 208.588C258.978 208.588 259.999 208.319 260.808 207.779C261.618 207.24 262.022 206.43 262.022 205.351C262.022 204.58 261.791 203.925 261.329 203.386C260.905 202.846 260.115 202.307 258.958 201.767C257.841 201.228 256.242 200.572 254.16 199.802C253.197 199.416 252.079 198.915 250.808 198.299C249.574 197.643 248.38 196.815 247.223 195.813C246.106 194.811 245.162 193.597 244.391 192.171C243.659 190.706 243.293 188.972 243.293 186.968C243.293 184.425 243.967 182.266 245.316 180.494C246.665 178.721 248.457 177.372 250.692 176.447C252.966 175.522 255.451 175.06 258.149 175.06C261.04 175.06 263.506 175.522 265.549 176.447C267.63 177.333 269.345 178.47 270.694 179.858C272.042 181.207 273.083 182.575 273.815 183.962L265.375 188.645C263.525 185.754 261.213 184.309 258.438 184.309C256.01 184.309 254.796 185.138 254.796 186.795C254.796 188.105 255.606 189.146 257.224 189.916C258.881 190.649 261.001 191.477 263.583 192.402C266.628 193.443 269.113 194.984 271.04 197.027C272.967 199.031 273.931 201.651 273.931 204.889C273.931 207.047 273.488 208.955 272.601 210.612C271.715 212.269 270.52 213.656 269.017 214.774C267.553 215.853 265.876 216.662 263.988 217.202C262.138 217.78 260.211 218.069 258.207 218.069C255.432 218.069 252.85 217.587 250.461 216.624C248.11 215.66 246.067 214.369 244.333 212.751C242.599 211.132 241.288 209.321 240.402 207.317L248.033 201.767ZM289.333 167.66C289.641 166.234 290.412 164.943 291.645 163.787C292.879 162.592 294.497 161.995 296.501 161.995C297.465 161.995 298.274 162.149 298.929 162.458C299.584 162.766 300.182 163.132 300.721 163.556C301.299 163.98 301.877 164.346 302.455 164.654C303.072 164.963 303.785 165.117 304.594 165.117C305.365 165.117 306.078 164.828 306.733 164.25C307.388 163.633 308.005 162.862 308.583 161.937L313.15 166.793C312.842 167.487 312.264 168.238 311.416 169.048C310.606 169.857 309.624 170.551 308.468 171.129C307.35 171.668 306.155 171.938 304.883 171.938C303.843 171.938 302.86 171.668 301.935 171.129C301.01 170.589 300.105 170.069 299.218 169.568C298.37 169.028 297.465 168.759 296.501 168.759C295.808 168.759 295.268 168.951 294.883 169.337C294.497 169.684 294.227 170.088 294.073 170.551C293.919 171.013 293.842 171.399 293.842 171.707L289.333 167.66ZM277.887 196.333C277.887 193.134 278.446 190.244 279.563 187.662C280.72 185.041 282.3 182.806 284.304 180.956C286.308 179.068 288.659 177.623 291.356 176.621C294.054 175.58 296.964 175.06 300.085 175.06C303.284 175.06 306.213 175.58 308.872 176.621C311.57 177.623 313.921 179.068 315.925 180.956C317.929 182.806 319.47 185.041 320.549 187.662C321.667 190.244 322.226 193.134 322.226 196.333C322.226 199.493 321.686 202.403 320.607 205.062C319.528 207.721 317.987 210.034 315.983 211.999C314.017 213.926 311.686 215.429 308.988 216.508C306.29 217.549 303.323 218.069 300.085 218.069C296.848 218.069 293.881 217.549 291.183 216.508C288.485 215.429 286.134 213.926 284.13 211.999C282.165 210.034 280.623 207.721 279.506 205.062C278.427 202.403 277.887 199.493 277.887 196.333ZM289.795 196.333C289.795 199.609 290.72 202.287 292.57 204.368C294.459 206.411 296.964 207.432 300.085 207.432C303.207 207.432 305.673 206.411 307.485 204.368C309.335 202.287 310.26 199.609 310.26 196.333C310.26 193.019 309.373 190.34 307.6 188.298C305.828 186.255 303.323 185.234 300.085 185.234C296.964 185.234 294.459 186.255 292.57 188.298C290.72 190.34 289.795 193.019 289.795 196.333ZM328.185 176.1H356.222V185.176H338.937V191.13H355.065V199.975H338.937V207.49H356.222V216.566H328.185V176.1ZM369.294 201.767C370.528 203.887 371.973 205.563 373.63 206.796C375.287 207.991 377.079 208.588 379.006 208.588C380.239 208.588 381.261 208.319 382.07 207.779C382.879 207.24 383.284 206.43 383.284 205.351C383.284 204.58 383.053 203.925 382.59 203.386C382.166 202.846 381.376 202.307 380.22 201.767C379.102 201.228 377.503 200.572 375.422 199.802C374.458 199.416 373.341 198.915 372.069 198.299C370.836 197.643 369.641 196.815 368.485 195.813C367.367 194.811 366.423 193.597 365.652 192.171C364.92 190.706 364.554 188.972 364.554 186.968C364.554 184.425 365.228 182.266 366.577 180.494C367.926 178.721 369.718 177.372 371.953 176.447C374.227 175.522 376.713 175.06 379.411 175.06C382.301 175.06 384.768 175.522 386.81 176.447C388.891 177.333 390.606 178.47 391.955 179.858C393.304 181.207 394.344 182.575 395.077 183.962L386.637 188.645C384.787 185.754 382.475 184.309 379.7 184.309C377.272 184.309 376.058 185.138 376.058 186.795C376.058 188.105 376.867 189.146 378.486 189.916C380.143 190.649 382.263 191.477 384.845 192.402C387.889 193.443 390.375 194.984 392.302 197.027C394.229 199.031 395.192 201.651 395.192 204.889C395.192 207.047 394.749 208.955 393.863 210.612C392.976 212.269 391.782 213.656 390.279 214.774C388.814 215.853 387.138 216.662 385.249 217.202C383.399 217.78 381.473 218.069 379.469 218.069C376.694 218.069 374.112 217.587 371.722 216.624C369.371 215.66 367.329 214.369 365.595 212.751C363.86 211.132 362.55 209.321 361.664 207.317L369.294 201.767Z" fill="white"/>
</svg>
