<svg width="397" height="328" viewBox="0 0 397 328" fill="none" xmlns="http://www.w3.org/2000/svg">
<path d="M15.6925 124.309H39.7758L39.4504 115.001H16.0831L15.6925 124.309ZM27.604 104.782L33.6574 118.451L32.9414 121.705L38.1486 131.664H52.4684L27.604 83.0418L2.80473 131.664H17.1245L22.3968 121.25L21.6157 118.451L27.604 104.782ZM70.3829 110.9L60.4241 86.1011H45.5836L70.3829 134.723L95.2473 86.1011H80.4068L70.3829 110.9ZM101.25 124.309H125.334L125.008 115.001H101.641L101.25 124.309ZM113.162 104.782L119.215 118.451L118.499 121.705L123.706 131.664H138.026L113.162 83.0418L88.3625 131.664H102.682L107.955 121.25L107.173 118.451L113.162 104.782ZM142.507 86.1011V131.664H173.555V120.924H155.134V86.1011H142.507ZM178.357 86.1011V131.664H191.245V86.1011H178.357ZM208.611 124.309H232.694L232.369 115.001H209.001L208.611 124.309ZM220.522 104.782L226.575 118.451L225.86 121.705L231.067 131.664H245.387L220.522 83.0418L195.723 131.664H210.043L215.315 121.25L214.534 118.451L220.522 104.782ZM259.157 108.883C259.157 106.322 259.721 104.153 260.849 102.374C262.021 100.551 263.562 99.1842 265.471 98.2729C267.38 97.3182 269.485 96.8409 271.785 96.8409C273.954 96.8409 275.842 97.123 277.447 97.6871C279.053 98.2512 280.485 98.9889 281.743 99.9001C283.002 100.768 284.108 101.701 285.063 102.699V89.4207C283.284 88.0755 281.309 86.9906 279.14 86.1662C277.013 85.3417 274.28 84.9294 270.938 84.9294C267.163 84.9294 263.692 85.4936 260.524 86.6218C257.356 87.75 254.644 89.3773 252.388 91.5035C250.131 93.6298 248.374 96.1683 247.115 99.1191C245.9 102.026 245.293 105.281 245.293 108.883C245.293 112.484 245.9 115.76 247.115 118.711C248.374 121.619 250.131 124.135 252.388 126.262C254.644 128.388 257.356 130.015 260.524 131.143C263.692 132.272 267.163 132.836 270.938 132.836C274.28 132.836 277.013 132.423 279.14 131.599C281.309 130.731 283.284 129.646 285.063 128.344V115.066C284.108 116.064 283.002 117.019 281.743 117.93C280.485 118.798 279.053 119.514 277.447 120.078C275.842 120.642 273.954 120.924 271.785 120.924C269.485 120.924 267.38 120.469 265.471 119.557C263.562 118.603 262.021 117.236 260.849 115.457C259.721 113.634 259.157 111.443 259.157 108.883ZM266.122 128.735L260.329 141.883C261.587 141.406 262.802 141.124 263.974 141.037C265.145 140.95 265.883 140.907 266.187 140.907C267.185 140.907 268.118 141.015 268.986 141.232C269.897 141.493 270.353 142.057 270.353 142.925C270.353 143.706 270.027 144.27 269.376 144.617C268.725 144.964 267.836 145.138 266.708 145.138C266.143 145.138 265.297 145.008 264.169 144.747C263.041 144.487 262.043 144.053 261.175 143.445L257.92 148.457C259.656 149.455 261.327 150.128 262.932 150.475C264.581 150.866 266.404 151.061 268.4 151.061C269.832 151.061 271.22 150.779 272.566 150.215C273.954 149.651 275.104 148.826 276.015 147.741C276.927 146.656 277.382 145.29 277.382 143.641C277.382 142.122 277.035 140.842 276.341 139.8C275.69 138.802 274.865 138.065 273.867 137.587C272.913 137.11 271.98 136.871 271.069 136.871C270.504 136.871 269.984 136.871 269.506 136.871C269.072 136.915 268.617 137.001 268.14 137.132L274.193 129.06L266.122 128.735ZM301.796 124.309H325.879L325.554 115.001H302.187L301.796 124.309ZM313.708 104.782L319.761 118.451L319.045 121.705L324.252 131.664H338.572L313.708 83.0418L288.908 131.664H303.228L308.5 121.25L307.719 118.451L313.708 104.782ZM300.364 74.5801L305.376 79.0713C305.376 78.7242 305.441 78.2903 305.571 77.7695C305.745 77.2488 306.049 76.7932 306.483 76.4027C306.96 75.9687 307.589 75.7518 308.37 75.7518C309.498 75.7518 310.54 76.0555 311.495 76.663C312.493 77.2705 313.491 77.878 314.489 78.4855C315.53 79.0496 316.637 79.3317 317.808 79.3317C319.284 79.3317 320.651 79.028 321.909 78.4204C323.167 77.7695 324.252 76.9885 325.163 76.0772C326.118 75.1659 326.769 74.3198 327.116 73.5387L322.039 68.0711C321.388 69.1126 320.694 69.9804 319.956 70.6747C319.262 71.3256 318.459 71.6511 317.548 71.6511C316.637 71.6511 315.834 71.4775 315.14 71.1304C314.489 70.7832 313.859 70.3927 313.252 69.9587C312.644 69.4814 311.95 69.0692 311.169 68.722C310.431 68.3315 309.52 68.1362 308.435 68.1362C306.96 68.1362 305.636 68.4617 304.465 69.1126C303.337 69.7635 302.425 70.5663 301.731 71.5209C301.037 72.4756 300.581 73.4953 300.364 74.5801ZM351.822 108.883C351.822 106.409 352.299 104.239 353.254 102.374C354.209 100.508 355.554 99.054 357.289 98.0125C359.025 96.9277 361.065 96.3853 363.408 96.3853C365.881 96.3853 367.964 96.9277 369.657 98.0125C371.392 99.054 372.716 100.508 373.627 102.374C374.538 104.239 374.994 106.409 374.994 108.883C374.994 111.313 374.517 113.482 373.562 115.392C372.607 117.257 371.262 118.733 369.526 119.818C367.834 120.859 365.795 121.38 363.408 121.38C361.065 121.38 359.025 120.859 357.289 119.818C355.554 118.733 354.209 117.257 353.254 115.392C352.299 113.482 351.822 111.313 351.822 108.883ZM338.478 108.883C338.478 112.441 339.086 115.717 340.301 118.711C341.516 121.705 343.23 124.309 345.443 126.522C347.7 128.692 350.346 130.384 353.384 131.599C356.422 132.771 359.763 133.356 363.408 133.356C367.053 133.356 370.394 132.771 373.432 131.599C376.513 130.384 379.16 128.692 381.373 126.522C383.586 124.309 385.3 121.705 386.515 118.711C387.73 115.717 388.337 112.441 388.337 108.883C388.337 105.281 387.708 102.026 386.45 99.1191C385.235 96.1683 383.499 93.6515 381.243 91.5686C378.986 89.4423 376.339 87.8151 373.302 86.6869C370.307 85.5153 367.01 84.9294 363.408 84.9294C359.893 84.9294 356.617 85.5153 353.579 86.6869C350.585 87.8151 347.96 89.4423 345.703 91.5686C343.447 93.6515 341.668 96.1683 340.366 99.1191C339.108 102.026 338.478 105.281 338.478 108.883Z" fill="white"/>
<path d="M18.0346 54.6056H38.9719L38.689 46.5136H18.3741L18.0346 54.6056ZM28.3901 37.6294L33.6527 49.5127L33.0302 52.3421L37.5572 61H50.0065L28.3901 18.7292L6.83024 61H19.2795L23.8631 51.946L23.184 49.5127L28.3901 37.6294ZM72.164 47.0229H81.9537C81.6141 47.8906 81.1614 48.7017 80.5955 49.4562C80.0674 50.2107 79.4261 50.8708 78.6716 51.4367C77.9171 51.9649 77.0305 52.3798 76.012 52.6816C74.9934 52.9457 73.8239 53.0778 72.5035 53.0778C70.3155 53.0778 68.3915 52.6062 66.7316 51.6631C65.0717 50.7199 63.7702 49.3618 62.8271 47.5888C61.884 45.778 61.4124 43.6465 61.4124 41.1944C61.4124 38.7045 61.9028 36.6108 62.8837 34.9132C63.9022 33.2155 65.2603 31.9329 66.958 31.0652C68.6556 30.1975 70.5041 29.7637 72.5035 29.7637C74.6161 29.7637 76.3326 30.2541 77.653 31.235C78.9734 32.2158 80.0297 33.423 80.8219 34.8566L90.8379 30.0466C89.5552 28.1981 88.0462 26.5571 86.3109 25.1235C84.5755 23.6523 82.5572 22.5017 80.256 21.6717C77.9925 20.804 75.4084 20.3702 72.5035 20.3702C69.2969 20.3702 66.3166 20.8606 63.5627 21.8415C60.8088 22.7846 58.4133 24.1804 56.3761 26.0289C54.339 27.8397 52.7545 30.0278 51.6228 32.5931C50.491 35.1584 49.9251 38.0255 49.9251 41.1944C49.9251 44.3633 50.4721 47.2681 51.5662 49.9089C52.6602 52.5119 54.1881 54.7565 56.1498 56.6428C58.1492 58.4913 60.4881 59.9248 63.1666 60.9434C65.8828 61.962 68.8442 62.4713 72.0508 62.4713C75.5215 62.4713 78.5961 61.8677 81.2746 60.6605C83.9531 59.4156 86.1788 57.7179 87.9519 55.5676C89.725 53.4173 91.0265 50.9086 91.8565 48.0415C92.6864 45.1744 92.9693 42.1186 92.7053 38.8743H72.164V47.0229ZM106.409 61H126.385V52.1158H106.409V61ZM106.409 30.273H126.385V21.3888H106.409V30.273ZM106.409 44.7028H125.253V36.1015H106.409V44.7028ZM98.9396 21.3888V61H109.465V21.3888H98.9396ZM160.515 21.3888V41.5339L133.975 19.4082V61H144.5V40.8549L171.04 62.9806V21.3888H160.515ZM179.179 21.3888V61H190.553V21.3888H179.179ZM194.005 61C198.494 61 202.342 60.2078 205.549 58.6233C208.793 57.0012 211.283 54.7188 213.018 51.7762C214.791 48.796 215.678 45.2687 215.678 41.1944C215.678 37.0824 214.791 33.5551 213.018 30.6125C211.283 27.67 208.793 25.4065 205.549 23.822C202.342 22.1999 198.494 21.3888 194.005 21.3888H186.648V31.0086H193.552C194.872 31.0086 196.155 31.1595 197.4 31.4613C198.683 31.7254 199.833 32.2347 200.852 32.9892C201.87 33.706 202.682 34.7434 203.285 36.1015C203.926 37.4219 204.247 39.1195 204.247 41.1944C204.247 43.2693 203.926 44.9857 203.285 46.3438C202.682 47.6642 201.87 48.7017 200.852 49.4562C199.833 50.1729 198.683 50.6822 197.4 50.984C196.155 51.2481 194.872 51.3801 193.552 51.3801H186.648V61H194.005ZM229.034 61H249.009V52.1158H229.034V61ZM229.034 30.273H249.009V21.3888H229.034V30.273ZM229.034 44.7028H247.877V36.1015H229.034V44.7028ZM221.564 21.3888V61H232.089V21.3888H221.564ZM278.771 46.5136L271.302 51.946C272.169 53.9077 273.452 55.6996 275.149 57.3218C276.847 58.9063 278.847 60.1512 281.148 61.0566C283.487 61.9997 286.014 62.4713 288.73 62.4713C290.654 62.4713 292.541 62.1883 294.389 61.6225C296.238 61.0943 297.879 60.3021 299.312 59.2458C300.784 58.1518 301.934 56.7937 302.764 55.1715C303.632 53.5493 304.066 51.6819 304.066 49.5693C304.066 47.9849 303.82 46.5513 303.33 45.2687C302.84 43.986 302.142 42.8543 301.236 41.8734C300.331 40.8549 299.256 39.9872 298.011 39.2704C296.804 38.5159 295.464 37.8746 293.993 37.3464C292.295 36.7428 290.786 36.1958 289.466 35.7054C288.183 35.1772 287.165 34.6302 286.41 34.0644C285.694 33.4608 285.335 32.7251 285.335 31.8574C285.335 31.1029 285.656 30.4993 286.297 30.0466C286.939 29.5939 287.806 29.3676 288.9 29.3676C289.768 29.3676 290.617 29.5374 291.447 29.8769C292.277 30.2164 293.05 30.7068 293.767 31.3482C294.521 31.9518 295.181 32.7251 295.747 33.6682L304.009 29.0847C303.292 27.7266 302.274 26.3873 300.953 25.067C299.633 23.7089 297.954 22.596 295.917 21.7283C293.88 20.8229 291.466 20.3702 288.674 20.3702C285.995 20.3702 283.562 20.8229 281.374 21.7283C279.186 22.6337 277.432 23.9541 276.111 25.6894C274.791 27.387 274.131 29.4808 274.131 31.9706C274.131 33.9323 274.489 35.6299 275.206 37.0635C275.961 38.497 276.885 39.7042 277.979 40.6851C279.111 41.6659 280.28 42.477 281.487 43.1184C282.694 43.722 283.788 44.2124 284.769 44.5896C286.769 45.3441 288.315 45.9855 289.41 46.5136C290.541 47.0418 291.333 47.5699 291.786 48.0981C292.239 48.5885 292.465 49.2109 292.465 49.9654C292.465 51.0217 292.069 51.8328 291.277 52.3987C290.485 52.9269 289.485 53.1909 288.278 53.1909C287.033 53.1909 285.826 52.9269 284.656 52.3987C283.487 51.8706 282.412 51.1161 281.431 50.1352C280.45 49.1166 279.563 47.9094 278.771 46.5136ZM309.976 21.3888V47.9849C309.976 50.6634 310.409 52.9457 311.277 54.832C312.145 56.7182 313.333 58.2649 314.842 59.4721C316.389 60.6416 318.162 61.5093 320.161 62.0752C322.198 62.641 324.349 62.924 326.612 62.924C328.913 62.924 331.064 62.641 333.063 62.0752C335.063 61.5093 336.836 60.6416 338.382 59.4721C339.929 58.2649 341.136 56.7182 342.004 54.832C342.872 52.9457 343.306 50.6634 343.306 47.9849V21.3888H332.328V47.0795C332.328 48.8903 331.856 50.3616 330.913 51.4933C329.97 52.5873 328.536 53.1343 326.612 53.1343C324.726 53.1343 323.311 52.5873 322.368 51.4933C321.425 50.3616 320.954 48.8903 320.954 47.0795V21.3888H309.976ZM358.112 54.6056H379.049L378.766 46.5136H358.452L358.112 54.6056ZM368.468 37.6294L373.73 49.5127L373.108 52.3421L377.635 61H390.084L368.468 18.7292L346.908 61H359.357L363.941 51.946L363.261 49.5127L368.468 37.6294Z" fill="white"/>
<path d="M17.0457 277.313C17.0457 274.576 17.6487 272.257 18.8547 270.356C20.107 268.408 21.7536 266.946 23.7944 265.972C25.8353 264.952 28.0848 264.442 30.5431 264.442C32.8623 264.442 34.8799 264.743 36.5961 265.346C38.3123 265.949 39.8429 266.738 41.188 267.712C42.5331 268.639 43.7159 269.637 44.7363 270.703V256.51C42.8346 255.072 40.7242 253.913 38.405 253.032C36.1323 252.15 33.2102 251.71 29.6387 251.71C25.6034 251.71 21.8927 252.313 18.5068 253.519C15.1208 254.725 12.2219 256.464 9.80998 258.737C7.39807 261.009 5.51957 263.723 4.17446 266.877C2.87574 269.985 2.22638 273.463 2.22638 277.313C2.22638 281.163 2.87574 284.665 4.17446 287.819C5.51957 290.926 7.39807 293.617 9.80998 295.889C12.2219 298.162 15.1208 299.902 18.5068 301.107C21.8927 302.313 25.6034 302.916 29.6387 302.916C33.2102 302.916 36.1323 302.476 38.405 301.594C40.7242 300.667 42.8346 299.507 44.7363 298.116V283.923C43.7159 284.989 42.5331 286.01 41.188 286.984C39.8429 287.912 38.3123 288.677 36.5961 289.28C34.8799 289.883 32.8623 290.184 30.5431 290.184C28.0848 290.184 25.8353 289.697 23.7944 288.723C21.7536 287.703 20.107 286.242 18.8547 284.34C17.6487 282.392 17.0457 280.05 17.0457 277.313ZM65.5445 277.313C65.5445 274.669 66.0547 272.35 67.0751 270.356C68.0955 268.361 69.5334 266.807 71.3887 265.694C73.244 264.535 75.424 263.955 77.9287 263.955C80.5725 263.955 82.7989 264.535 84.6078 265.694C86.4632 266.807 87.8778 268.361 88.8519 270.356C89.8259 272.35 90.3129 274.669 90.3129 277.313C90.3129 279.91 89.8027 282.23 88.7823 284.27C87.7619 286.265 86.324 287.842 84.4687 289.002C82.6598 290.115 80.4798 290.671 77.9287 290.671C75.424 290.671 73.244 290.115 71.3887 289.002C69.5334 287.842 68.0955 286.265 67.0751 284.27C66.0547 282.23 65.5445 279.91 65.5445 277.313ZM51.2817 277.313C51.2817 281.116 51.9311 284.618 53.2298 287.819C54.5285 291.019 56.3607 293.802 58.7262 296.168C61.1381 298.487 63.9675 300.296 67.2143 301.594C70.4611 302.847 74.0325 303.473 77.9287 303.473C81.8249 303.473 85.3964 302.847 88.6432 301.594C91.9363 300.296 94.7657 298.487 97.1312 296.168C99.4968 293.802 101.329 291.019 102.628 287.819C103.926 284.618 104.576 281.116 104.576 277.313C104.576 273.463 103.903 269.985 102.558 266.877C101.259 263.723 99.404 261.033 96.9921 258.806C94.5802 256.533 91.7508 254.794 88.504 253.588C85.3036 252.336 81.7785 251.71 77.9287 251.71C74.1717 251.71 70.6698 252.336 67.423 253.588C64.2226 254.794 61.4164 256.533 59.0045 258.806C56.5926 261.033 54.6909 263.723 53.2994 266.877C51.9543 269.985 51.2817 273.463 51.2817 277.313ZM144.447 252.962V277.73L111.817 250.527V301.664H124.758V276.896L157.388 304.099V252.962H144.447ZM178.875 277.313C178.875 274.669 179.385 272.35 180.405 270.356C181.426 268.361 182.863 266.807 184.719 265.694C186.574 264.535 188.754 263.955 191.259 263.955C193.903 263.955 196.129 264.535 197.938 265.694C199.793 266.807 201.208 268.361 202.182 270.356C203.156 272.35 203.643 274.669 203.643 277.313C203.643 279.91 203.133 282.23 202.112 284.27C201.092 286.265 199.654 287.842 197.799 289.002C195.99 290.115 193.81 290.671 191.259 290.671C188.754 290.671 186.574 290.115 184.719 289.002C182.863 287.842 181.426 286.265 180.405 284.27C179.385 282.23 178.875 279.91 178.875 277.313ZM164.612 277.313C164.612 281.116 165.261 284.618 166.56 287.819C167.859 291.019 169.691 293.802 172.056 296.168C174.468 298.487 177.298 300.296 180.544 301.594C183.791 302.847 187.363 303.473 191.259 303.473C195.155 303.473 198.726 302.847 201.973 301.594C205.266 300.296 208.096 298.487 210.461 296.168C212.827 293.802 214.659 291.019 215.958 287.819C217.256 284.618 217.906 281.116 217.906 277.313C217.906 273.463 217.233 269.985 215.888 266.877C214.589 263.723 212.734 261.033 210.322 258.806C207.91 256.533 205.081 254.794 201.834 253.588C198.634 252.336 195.109 251.71 191.259 251.71C187.502 251.71 184 252.336 180.753 253.588C177.553 254.794 174.746 256.533 172.335 258.806C169.923 261.033 168.021 263.723 166.629 266.877C165.284 269.985 164.612 273.463 164.612 277.313ZM231.548 283.853L222.364 290.532C223.431 292.944 225.008 295.147 227.095 297.142C229.182 299.09 231.641 300.62 234.47 301.734C237.346 302.893 240.453 303.473 243.793 303.473C246.158 303.473 248.478 303.125 250.75 302.429C253.023 301.78 255.041 300.806 256.803 299.507C258.612 298.162 260.027 296.492 261.047 294.498C262.114 292.503 262.648 290.207 262.648 287.61C262.648 285.662 262.346 283.899 261.743 282.322C261.14 280.745 260.282 279.354 259.169 278.148C258.056 276.896 256.734 275.829 255.203 274.948C253.719 274.02 252.072 273.231 250.263 272.582C248.176 271.84 246.321 271.167 244.697 270.564C243.12 269.915 241.868 269.242 240.94 268.547C240.059 267.805 239.618 266.9 239.618 265.833C239.618 264.906 240.013 264.163 240.801 263.607C241.59 263.05 242.656 262.772 244.002 262.772C245.068 262.772 246.112 262.981 247.132 263.398C248.153 263.816 249.104 264.419 249.985 265.207C250.913 265.949 251.724 266.9 252.42 268.06L262.578 262.424C261.697 260.754 260.444 259.108 258.821 257.484C257.198 255.815 255.133 254.446 252.629 253.379C250.124 252.266 247.156 251.71 243.723 251.71C240.43 251.71 237.438 252.266 234.748 253.379C232.058 254.493 229.901 256.116 228.278 258.25C226.654 260.337 225.843 262.911 225.843 265.972C225.843 268.384 226.283 270.472 227.165 272.234C228.092 273.997 229.229 275.481 230.574 276.687C231.965 277.893 233.403 278.89 234.887 279.679C236.372 280.421 237.717 281.024 238.923 281.487C241.381 282.415 243.283 283.204 244.628 283.853C246.019 284.502 246.993 285.152 247.55 285.801C248.106 286.404 248.385 287.169 248.385 288.097C248.385 289.396 247.898 290.393 246.924 291.089C245.95 291.738 244.721 292.063 243.236 292.063C241.706 292.063 240.221 291.738 238.784 291.089C237.346 290.439 236.024 289.512 234.818 288.306C233.612 287.053 232.522 285.569 231.548 283.853ZM282.298 277.313C282.298 274.576 282.901 272.257 284.107 270.356C285.359 268.408 287.006 266.946 289.047 265.972C291.087 264.952 293.337 264.442 295.795 264.442C298.114 264.442 300.132 264.743 301.848 265.346C303.564 265.949 305.095 266.738 306.44 267.712C307.785 268.639 308.968 269.637 309.989 270.703V256.51C308.087 255.072 305.976 253.913 303.657 253.032C301.384 252.15 298.462 251.71 294.891 251.71C290.856 251.71 287.145 252.313 283.759 253.519C280.373 254.725 277.474 256.464 275.062 258.737C272.65 261.009 270.772 263.723 269.427 266.877C268.128 269.985 267.479 273.463 267.479 277.313C267.479 281.163 268.128 284.665 269.427 287.819C270.772 290.926 272.65 293.617 275.062 295.889C277.474 298.162 280.373 299.902 283.759 301.107C287.145 302.313 290.856 302.916 294.891 302.916C298.462 302.916 301.384 302.476 303.657 301.594C305.976 300.667 308.087 299.507 309.989 298.116V283.923C308.968 284.989 307.785 286.01 306.44 286.984C305.095 287.912 303.564 288.677 301.848 289.28C300.132 289.883 298.114 290.184 295.795 290.184C293.337 290.184 291.087 289.697 289.047 288.723C287.006 287.703 285.359 286.242 284.107 284.34C282.901 282.392 282.298 280.05 282.298 277.313ZM330.797 277.313C330.797 274.669 331.307 272.35 332.327 270.356C333.348 268.361 334.786 266.807 336.641 265.694C338.496 264.535 340.676 263.955 343.181 263.955C345.825 263.955 348.051 264.535 349.86 265.694C351.715 266.807 353.13 268.361 354.104 270.356C355.078 272.35 355.565 274.669 355.565 277.313C355.565 279.91 355.055 282.23 354.035 284.27C353.014 286.265 351.576 287.842 349.721 289.002C347.912 290.115 345.732 290.671 343.181 290.671C340.676 290.671 338.496 290.115 336.641 289.002C334.786 287.842 333.348 286.265 332.327 284.27C331.307 282.23 330.797 279.91 330.797 277.313ZM316.534 277.313C316.534 281.116 317.183 284.618 318.482 287.819C319.781 291.019 321.613 293.802 323.978 296.168C326.39 298.487 329.22 300.296 332.466 301.594C335.713 302.847 339.285 303.473 343.181 303.473C347.077 303.473 350.649 302.847 353.895 301.594C357.189 300.296 360.018 298.487 362.383 296.168C364.749 293.802 366.581 291.019 367.88 287.819C369.179 284.618 369.828 281.116 369.828 277.313C369.828 273.463 369.155 269.985 367.81 266.877C366.512 263.723 364.656 261.033 362.244 258.806C359.832 256.533 357.003 254.794 353.756 253.588C350.556 252.336 347.031 251.71 343.181 251.71C339.424 251.71 335.922 252.336 332.675 253.588C329.475 254.794 326.669 256.533 324.257 258.806C321.845 261.033 319.943 263.723 318.552 266.877C317.206 269.985 316.534 273.463 316.534 277.313ZM377.069 252.962L379.574 284.966H389.384L391.888 252.962H377.069ZM377.069 296.933C377.069 298.881 377.765 300.458 379.156 301.664C380.548 302.916 382.31 303.543 384.444 303.543C386.624 303.543 388.386 302.916 389.732 301.664C391.123 300.458 391.819 298.881 391.819 296.933C391.819 294.939 391.123 293.338 389.732 292.132C388.386 290.88 386.624 290.254 384.444 290.254C382.31 290.254 380.548 290.88 379.156 292.132C377.765 293.338 377.069 294.939 377.069 296.933Z" fill="white"/>
<path d="M38.2192 199.939H51.3344C50.8795 201.101 50.273 202.188 49.5149 203.199C48.8074 204.21 47.9482 205.094 46.9374 205.852C45.9266 206.56 44.7389 207.116 43.3743 207.52C42.0098 207.874 40.443 208.051 38.6741 208.051C35.7428 208.051 33.1653 207.419 30.9415 206.155C28.7177 204.892 26.9741 203.072 25.7106 200.697C24.4471 198.271 23.8154 195.416 23.8154 192.131C23.8154 188.795 24.4724 185.99 25.7864 183.716C27.151 181.441 28.9704 179.723 31.2447 178.561C33.519 177.398 35.9955 176.817 38.6741 176.817C41.5044 176.817 43.8039 177.474 45.5728 178.788C47.3417 180.102 48.7568 181.719 49.8182 183.64L63.2366 177.196C61.5182 174.72 59.4966 172.521 57.1717 170.601C54.8469 168.629 52.143 167.088 49.0601 165.976C46.0277 164.814 42.5657 164.232 38.6741 164.232C34.3782 164.232 30.3856 164.89 26.6961 166.204C23.0067 167.467 19.7974 169.337 17.0683 171.813C14.3391 174.239 12.2164 177.171 10.7002 180.607C9.18402 184.044 8.42592 187.885 8.42592 192.131C8.42592 196.376 9.15875 200.268 10.6244 203.805C12.0901 207.293 14.1369 210.3 16.765 212.827C19.4436 215.303 22.5771 217.224 26.1655 218.588C29.8043 219.953 33.7717 220.635 38.0676 220.635C42.7173 220.635 46.8363 219.826 50.4247 218.209C54.013 216.541 56.9949 214.267 59.3702 211.386C61.7456 208.506 63.4893 205.145 64.6011 201.304C65.713 197.463 66.0921 193.369 65.7383 189.022H38.2192V199.939ZM88.4943 195.239L102.368 218.664H119.501L103.58 195.239H88.4943ZM74.0904 165.597V218.664H88.7975V165.597H74.0904ZM83.4908 178.03H93.7252C95.2919 178.03 96.606 178.257 97.6673 178.712C98.7287 179.167 99.5373 179.849 100.093 180.759C100.7 181.618 101.003 182.68 101.003 183.943C101.003 185.207 100.7 186.293 100.093 187.203C99.5373 188.113 98.7287 188.795 97.6673 189.25C96.606 189.705 95.2919 189.932 93.7252 189.932H83.4908V201.076H94.9382C99.79 201.076 103.783 200.343 106.916 198.878C110.1 197.361 112.45 195.264 113.966 192.585C115.533 189.856 116.317 186.773 116.317 183.337C116.317 179.849 115.533 176.792 113.966 174.164C112.45 171.485 110.1 169.388 106.916 167.871C103.783 166.355 99.79 165.597 94.9382 165.597H83.4908V178.03ZM134.424 210.098H162.474L162.095 199.257H134.879L134.424 210.098ZM148.297 187.355L155.347 203.275L154.514 207.065L160.578 218.664H177.257L148.297 162.034L119.414 218.664H136.092L142.232 206.534L141.323 203.275L148.297 187.355ZM171.838 178.712H186.697V218.664H201.404V178.712H216.263V165.597H171.838V178.712ZM221.482 165.597V201.228C221.482 204.816 222.063 207.874 223.225 210.401C224.388 212.928 225.98 215 228.001 216.617C230.073 218.184 232.449 219.346 235.127 220.104C237.857 220.863 240.737 221.242 243.77 221.242C246.853 221.242 249.733 220.863 252.412 220.104C255.091 219.346 257.466 218.184 259.538 216.617C261.61 215 263.228 212.928 264.39 210.401C265.553 207.874 266.134 204.816 266.134 201.228V165.597H251.427V200.015C251.427 202.441 250.795 204.412 249.531 205.928C248.268 207.394 246.347 208.126 243.77 208.126C241.243 208.126 239.348 207.394 238.084 205.928C236.821 204.412 236.189 202.441 236.189 200.015V165.597H221.482ZM276.645 165.597V218.664H291.656V165.597H276.645ZM297.25 178.712H312.109V218.664H326.816V178.712H341.675V165.597H297.25V178.712ZM349.046 210.098H377.096L376.717 199.257H349.501L349.046 210.098ZM362.919 187.355L369.97 203.275L369.136 207.065L375.201 218.664H391.879L362.919 162.034L334.036 218.664H350.714L356.855 206.534L355.945 203.275L362.919 187.355Z" fill="white"/>
</svg>
